# xmcd
#
# Track frame offsets:
# 150
# 16097
# 40916
# 58652
# 72414
# 83262
# 93782
# 104854
# 116137
# 126457
# 137205
# 152929
# 168593
# 180904
# 191819
# 203938
# 214321
# 225009
# 246572
#
# Disc length: 3638 seconds
#
#
# Revision: 0
# Processed by: cddbd v1.5.1PL0 Copyright (c) Steve Scherf et al.
# Submitted via: FreeRIP 2.93 
#
DISCID=110e3413
DTITLE=Willie Nelson - Willie Nelson and Friends
DYEAR=1900
DGENRE=Country
TTITLE0=Crazy
TTITLE1=Funny How Time Slips Away
TTITLE2=Night Life
TTITLE3=Rainy Day Blues
TTITLE4=Hello Walls
TTITLE5=The Part Where I Cry
TTITLE6=At The Bottom
TTITLE7=You Took My Happy Away
TTITLE8=There'll Be No Teardrops Toight
TTITLE9=Ain't Life Hell
TTITLE10=Fire To Fire
TTITLE11=Still Water Runs The Deepest
TTITLE12=Willingly
TTITLE13=Together
TTITLE14=Our Chain Of Love
TTITLE15=Columbus Stockade Blues
TTITLE16=Is This My Destiny
TTITLE17=You Dream About Me
TTITLE18=Data
EXTD=
EXTT0=
EXTT1=
EXTT2=
EXTT3=
EXTT4=
EXTT5=
EXTT6=
EXTT7=
EXTT8=
EXTT9=
EXTT10=
EXTT11=
EXTT12=
EXTT13=
EXTT14=
EXTT15=
EXTT16=
EXTT17=
EXTT18=
PLAYORDER=
